<?xml version="1.0" standalone="no"?>
<!DOCTYPE svg PUBLIC "-//W3C//DTD SVG 20010904//EN"
 "http://www.w3.org/TR/2001/REC-SVG-20010904/DTD/svg10.dtd">
<svg version="1.0" xmlns="http://www.w3.org/2000/svg"
 width="413.000000pt" height="122.000000pt" viewBox="0 0 413.000000 122.000000"
 preserveAspectRatio="xMidYMid meet">

<g transform="translate(0.000000,122.000000) scale(0.100000,-0.100000)"
fill="#000000" stroke="none">
<path d="M64 1156 l-34 -34 0 -512 0 -512 34 -34 34 -34 1967 0 1967 0 34 34
34 34 0 512 0 512 -34 34 -34 34 -1967 0 -1967 0 -34 -34z m801 -158 c-12 -55
-45 -104 -85 -127 -59 -33 -74 -29 -67 19 3 21 15 53 27 70 23 32 83 69 113
70 16 0 18 -5 12 -32z m570 9 c32 -27 44 -92 25 -138 -16 -38 -61 -59 -125
-59 l-45 0 0 110 0 110 59 0 c48 0 65 -5 86 -23z m95 8 c0 -8 -7 -15 -15 -15
-8 0 -15 7 -15 15 0 8 7 15 15 15 8 0 15 -7 15 -15z m738 -5 c-7 -11 -18 -20
-24 -20 -7 0 -10 8 -7 20 3 11 14 20 24 20 17 0 18 -3 7 -20z m380 -87 c-2
-74 -7 -108 -15 -111 -10 -3 -13 23 -13 107 0 93 2 111 15 111 13 0 15 -16 13
-107z m-1118 -34 c0 -60 -3 -80 -12 -77 -9 3 -14 31 -16 81 -2 64 0 77 13 77
12 0 15 -15 15 -81z m138 69 c16 -16 15 -28 -3 -28 -8 0 -15 5 -15 11 0 14
-52 7 -57 -8 -3 -7 8 -15 24 -19 67 -15 89 -49 56 -86 -21 -24 -65 -23 -94 2
-21 17 -22 21 -9 29 10 7 16 7 18 1 6 -16 39 -30 56 -24 28 11 17 32 -21 44
-35 11 -63 34 -63 51 0 32 82 53 108 27z m153 6 c24 -7 42 -57 34 -94 -8 -38
-46 -64 -79 -56 -22 5 -25 2 -28 -26 -2 -17 -9 -33 -15 -36 -10 -3 -13 23 -13
106 l0 110 43 0 c23 1 49 -1 58 -4z m181 -11 c26 -23 25 -96 -2 -123 -46 -46
-120 -10 -120 58 0 54 23 82 67 82 20 0 45 -7 55 -17z m165 6 c18 -15 19 -153
1 -147 -8 3 -15 30 -18 69 -4 53 -8 64 -24 67 -29 6 -46 -25 -46 -86 0 -38 -4
-52 -12 -50 -9 3 -14 31 -16 80 l-3 75 52 2 c29 0 58 -4 66 -10z m91 -66 c-2
-50 -7 -78 -15 -81 -10 -3 -13 17 -13 77 0 66 3 81 15 81 13 0 15 -13 13 -77z
m78 22 c10 -30 21 -52 25 -48 3 5 14 29 24 56 10 26 24 47 31 47 17 0 19 7
-15 -80 -16 -41 -34 -75 -42 -75 -7 0 -23 27 -36 60 -35 91 -36 95 -19 95 9 0
21 -20 32 -55z m235 34 c11 -11 19 -30 17 -42 -3 -19 -11 -23 -63 -27 l-60 -5
23 -22 c27 -28 36 -28 59 -4 12 13 23 17 32 12 11 -7 9 -13 -8 -30 -26 -26
-71 -27 -101 -3 -30 24 -33 91 -6 121 25 28 79 28 107 0z m319 1 c15 -27 9
-132 -7 -138 -9 -3 -13 12 -13 51 0 67 -7 87 -30 87 -27 0 -39 -21 -42 -80 -2
-31 -8 -55 -15 -58 -10 -3 -13 17 -13 76 l0 79 55 2 c45 1 56 -3 65 -19z m156
12 c6 -4 13 -40 16 -79 4 -58 2 -73 -8 -73 -8 0 -14 5 -14 10 0 7 -6 7 -19 0
-45 -24 -91 -6 -91 36 0 28 16 41 63 49 28 5 37 12 35 24 -4 23 -49 27 -64 6
-7 -9 -18 -14 -24 -10 -8 5 -6 13 6 26 17 19 78 26 100 11z m-2389 -137 c19
-8 46 -15 58 -15 12 0 39 7 58 15 71 29 158 16 208 -31 l26 -25 -33 -33 c-75
-75 -64 -204 23 -257 32 -20 33 -21 18 -55 -33 -80 -105 -161 -149 -169 -18
-4 -47 0 -68 9 -48 20 -92 20 -151 0 -60 -20 -85 -14 -130 33 -69 70 -127 212
-127 308 0 97 57 195 130 224 37 15 96 13 137 -4z m919 -355 c35 -107 64 -198
64 -202 0 -5 -15 -8 -34 -8 -33 0 -35 2 -53 58 l-20 57 -65 3 -65 3 -17 -61
c-17 -59 -18 -60 -52 -60 -32 0 -35 2 -28 23 4 12 33 104 66 205 l59 183 40
-3 41 -3 64 -195z m1082 194 c20 -6 22 -11 17 -33 -4 -14 -8 -27 -9 -28 -1 -1
-21 2 -44 8 -60 13 -96 -4 -100 -48 -3 -31 0 -34 67 -68 39 -19 78 -47 88 -62
22 -33 21 -91 -1 -125 -33 -51 -132 -72 -200 -44 -29 12 -33 18 -29 41 4 19
10 24 22 20 28 -12 89 -18 115 -11 31 8 50 40 42 71 -4 17 -25 32 -70 54 -75
35 -106 70 -106 118 0 45 14 70 53 93 32 20 107 26 155 14z m182 -79 c0 -33 2
-35 35 -35 31 0 35 -3 35 -25 0 -22 -4 -25 -35 -25 l-35 0 0 -79 c0 -99 5
-111 41 -111 24 0 29 -4 29 -24 0 -42 -63 -50 -107 -12 -26 22 -27 29 -31 125
-4 91 -6 101 -23 101 -14 0 -19 7 -19 25 0 18 5 25 20 25 15 0 20 7 20 25 0
25 22 44 53 45 13 0 17 -8 17 -35z m-924 -44 c79 -48 86 -191 12 -259 -33 -30
-88 -39 -127 -19 l-31 15 0 -69 0 -69 -35 0 -35 0 0 205 0 205 30 0 c20 0 30
-5 30 -15 0 -12 6 -11 33 5 40 25 83 25 123 1z m335 2 c45 -27 73 -93 66 -155
-7 -60 -26 -92 -70 -118 -41 -26 -88 -25 -121 1 l-26 20 0 -75 0 -76 -30 0
-30 0 0 168 c0 92 -3 184 -6 205 -6 36 -6 37 25 37 21 0 31 -5 31 -15 0 -19 3
-19 42 5 41 25 81 25 119 3z m924 -7 c60 -39 79 -150 37 -218 -25 -41 -75 -68
-124 -68 -149 0 -193 223 -58 293 41 21 107 18 145 -7z m275 -10 c0 -30 -3
-33 -27 -33 -48 0 -63 -33 -63 -139 l0 -94 -35 0 -35 0 0 145 0 145 30 0 c24
0 30 -4 30 -22 1 -20 2 -21 13 -7 16 21 48 38 70 39 13 0 17 -8 17 -34z m220
21 c37 -19 70 -74 70 -118 l0 -39 -101 0 c-99 0 -100 0 -94 -22 13 -44 41 -62
92 -61 26 1 55 3 63 4 10 3 15 -4 15 -21 0 -17 -7 -26 -25 -31 -78 -22 -167 8
-194 65 -32 68 -17 155 36 202 39 36 93 44 138 21z"/>
<path d="M1320 920 l0 -80 38 0 c52 0 72 18 79 68 8 63 -14 92 -72 92 l-45 0
0 -80z"/>
<path d="M1762 938 c-7 -7 -12 -29 -12 -50 0 -49 30 -68 60 -38 22 22 26 51
10 81 -12 21 -40 25 -58 7z"/>
<path d="M1922 938 c-20 -20 -15 -86 8 -98 43 -23 81 32 56 82 -13 26 -45 35
-64 16z"/>
<path d="M2493 943 c-7 -2 -13 -11 -13 -19 0 -10 12 -14 40 -14 41 0 49 7 28
28 -12 12 -33 14 -55 5z"/>
<path d="M2990 881 c-28 -8 -39 -38 -17 -47 21 -8 53 11 60 36 5 21 -1 23 -43
11z"/>
<path d="M1445 528 c-11 -40 -21 -79 -23 -85 -2 -9 12 -13 48 -13 43 0 51 3
46 15 -3 9 -15 47 -27 85 -11 39 -22 70 -23 70 -1 0 -10 -33 -21 -72z"/>
<path d="M1787 482 c-24 -26 -24 -133 1 -155 35 -31 92 -22 110 18 22 49 11
125 -22 147 -21 14 -73 8 -89 -10z"/>
<path d="M2126 481 c-23 -26 -32 -93 -16 -130 23 -57 98 -58 128 -1 17 32 9
105 -13 130 -23 26 -76 26 -99 1z"/>
<path d="M3045 485 c-21 -20 -25 -34 -25 -80 0 -46 4 -60 25 -80 13 -14 32
-25 42 -25 78 0 108 147 40 195 -31 21 -54 19 -82 -10z"/>
<path d="M3568 493 c-38 -45 -32 -53 42 -53 l70 0 -11 27 c-6 15 -16 31 -22
35 -21 14 -64 8 -79 -9z"/>
</g>
</svg>
