<?xml version="1.0" standalone="no"?>
<!DOCTYPE svg PUBLIC "-//W3C//DTD SVG 20010904//EN"
 "http://www.w3.org/TR/2001/REC-SVG-20010904/DTD/svg10.dtd">
<svg version="1.0" xmlns="http://www.w3.org/2000/svg"
 width="408.000000pt" height="124.000000pt" viewBox="0 0 408.000000 124.000000"
 preserveAspectRatio="xMidYMid meet">

<g transform="translate(0.000000,124.000000) scale(0.100000,-0.100000)"
fill="#000000" stroke="none">
<path d="M126 1190 c-15 -5 -37 -17 -48 -27 -48 -43 -48 -43 -48 -545 0 -529
-1 -521 71 -560 32 -17 113 -18 1934 -18 1821 0 1902 1 1934 18 72 39 71 31
71 557 0 518 1 512 -63 559 l-28 21 -1897 2 c-1043 1 -1910 -2 -1926 -7z
m2084 -134 c0 -16 -14 -36 -26 -36 -14 0 -19 22 -7 33 7 8 33 10 33 3z m-625
-56 c23 -25 13 -37 -20 -22 -27 13 -58 6 -52 -12 2 -6 20 -19 40 -28 46 -22
63 -52 48 -84 -20 -45 -110 -39 -119 9 -4 21 16 22 39 1 14 -12 22 -13 39 -4
29 15 21 31 -26 56 -44 23 -55 55 -28 85 22 25 56 24 79 -1z m350 -17 c44 -45
31 -119 -27 -149 -65 -34 -138 11 -138 85 1 88 101 127 165 64z m570 17 c0
-10 -13 -16 -42 -18 -34 -3 -43 -7 -43 -22 0 -14 9 -20 37 -22 50 -4 55 -26 6
-30 -30 -2 -39 -7 -41 -25 -3 -19 2 -22 39 -25 70 -5 61 -28 -10 -28 l-61 0 0
88 c0 49 3 92 7 96 4 4 30 6 58 4 36 -2 50 -7 50 -18z m520 6 c39 -17 55 -42
55 -89 0 -68 -67 -113 -131 -87 -33 14 -59 55 -59 94 0 30 43 83 73 89 12 2
23 5 25 6 1 0 18 -5 37 -13z m-2424 -134 c377 -217 389 -225 395 -249 8 -32
-3 -43 -95 -88 l-81 -39 -60 59 -59 58 -68 -61 c-37 -33 -122 -115 -187 -181
-66 -66 -123 -118 -128 -115 -4 3 -8 167 -8 364 0 354 0 359 21 374 12 8 29
11 38 8 10 -4 114 -62 232 -130z m762 118 c33 -26 42 -69 23 -113 -11 -28 -23
-38 -53 -46 -83 -23 -83 -23 -83 84 l0 95 44 0 c28 0 52 -7 69 -20z m95 -72
c-2 -62 -7 -93 -15 -96 -10 -3 -13 20 -13 92 0 80 3 96 15 96 13 0 15 -15 13
-92z m282 72 c11 -11 20 -27 20 -35 0 -25 -38 -55 -70 -55 -28 0 -30 -2 -30
-41 0 -28 -4 -39 -12 -37 -9 3 -14 34 -16 96 l-3 92 46 0 c32 0 51 -6 65 -20z
m320 -42 l40 -63 0 63 c0 48 3 62 15 62 12 0 15 -17 15 -95 0 -116 -10 -121
-65 -30 l-40 65 -5 -62 c-3 -36 -10 -63 -17 -66 -10 -3 -13 20 -13 92 0 118
12 124 70 34z m138 -30 c-2 -62 -7 -93 -15 -96 -10 -3 -13 20 -13 92 0 80 3
96 15 96 13 0 15 -15 13 -92z m68 32 c9 -33 20 -60 23 -60 4 0 15 25 26 56 17
51 37 75 51 62 10 -10 -62 -183 -76 -183 -9 0 -26 35 -47 93 -30 86 -31 92
-13 92 15 0 23 -13 36 -60z m296 -17 l3 -78 38 -3 c25 -2 37 -8 37 -18 0 -12
-11 -14 -52 -12 l-53 3 -3 93 c-2 76 0 92 12 92 12 0 16 -17 18 -77z m228 22
c17 -30 35 -57 39 -59 4 -3 6 22 5 55 -3 53 -1 59 17 59 18 0 20 -6 17 -92 -4
-116 -15 -119 -75 -23 l-43 69 0 -73 c0 -54 -3 -72 -12 -69 -9 3 -14 34 -16
96 -3 86 -1 92 17 92 13 0 30 -18 51 -55z m-1246 -275 c37 -23 38 -23 18 -42
-18 -19 -21 -19 -50 -4 -50 26 -115 21 -153 -11 -34 -29 -59 -78 -59 -115 0
-36 38 -102 69 -121 36 -21 102 -22 141 -2 25 13 60 60 60 80 0 3 -29 5 -65 5
l-65 0 0 30 0 30 95 0 95 0 0 -37 c0 -44 -28 -110 -56 -135 -30 -26 -89 -48
-131 -48 -101 1 -203 102 -203 200 0 67 57 150 125 182 53 25 129 20 179 -12z
m1004 -172 l2 -188 -30 0 -30 0 0 191 0 190 28 -3 27 -3 3 -187z m570 172 c77
-35 93 -127 32 -185 -26 -25 -40 -30 -95 -33 l-65 -4 0 -69 0 -69 -30 0 -30 0
0 190 0 190 73 0 c50 0 85 -6 115 -20z m160 -172 l2 -188 -30 0 -30 0 0 191 0
190 28 -3 27 -3 3 -187z m-1454 48 c50 -21 76 -60 76 -115 -1 -55 -16 -85 -56
-112 -61 -40 -158 -12 -185 53 -28 69 -9 130 54 168 38 23 66 25 111 6z m279
0 c47 -20 69 -49 75 -102 9 -82 -44 -144 -123 -144 -100 0 -159 94 -116 183
32 67 97 92 164 63z m305 3 l42 1 0 -135 c0 -145 -8 -179 -52 -209 -49 -34
-167 -3 -176 46 -5 27 36 33 62 9 12 -12 31 -21 42 -21 30 0 64 29 64 55 0 22
-2 23 -34 13 -44 -14 -78 -5 -114 32 -41 41 -49 90 -22 145 25 51 70 78 115
69 17 -3 49 -5 73 -5z m339 -9 c18 -10 39 -32 47 -48 l15 -30 -52 -22 c-29
-13 -67 -29 -86 -37 -32 -14 -32 -15 -15 -34 22 -24 55 -24 86 1 24 19 26 19
42 1 22 -24 21 -28 -16 -51 -71 -43 -160 -11 -188 68 -13 37 -13 47 0 84 17
48 67 88 109 88 14 0 40 -9 58 -20z m723 5 c50 -26 60 -51 60 -147 0 -86 0
-88 -24 -88 -13 0 -26 5 -28 12 -3 7 -13 5 -31 -7 -55 -36 -137 9 -137 75 0
19 10 37 32 55 26 22 39 26 80 23 49 -3 58 2 36 19 -25 19 -46 21 -72 8 -19
-10 -34 -12 -53 -4 -25 9 -25 10 -7 30 36 40 94 50 144 24z m154 -79 l33 -78
33 81 c30 76 34 81 62 81 25 0 29 -3 23 -17 -3 -10 -38 -91 -77 -180 -67 -156
-72 -163 -99 -163 -26 0 -28 2 -19 25 5 13 18 42 29 64 l21 40 -50 112 c-28
62 -50 115 -50 117 0 2 14 2 31 0 28 -3 33 -10 63 -82z"/>
<path d="M1826 969 c-33 -26 -35 -70 -4 -99 29 -26 59 -25 86 3 29 30 28 62
-3 92 -29 30 -45 31 -79 4z"/>
<path d="M2945 965 c-30 -30 -31 -54 -4 -89 25 -31 61 -34 89 -6 29 29 26 74
-6 99 -34 27 -50 26 -79 -4z"/>
<path d="M1280 924 l0 -65 32 3 c62 6 78 91 23 116 -50 23 -55 18 -55 -54z"/>
<path d="M1660 955 c0 -24 3 -26 33 -23 24 2 32 8 32 23 0 15 -8 21 -32 23
-30 3 -33 1 -33 -23z"/>
<path d="M2988 575 l4 -65 44 0 c34 0 51 6 69 25 52 51 18 105 -67 105 l-53 0
3 -65z"/>
<path d="M1744 510 c-29 -11 -47 -60 -35 -91 30 -80 131 -64 131 21 0 20 -6
44 -12 53 -16 20 -57 29 -84 17z"/>
<path d="M2014 506 c-64 -46 -20 -152 56 -137 45 9 68 84 38 124 -19 24 -69
31 -94 13z"/>
<path d="M2293 505 c-45 -32 -36 -115 15 -133 75 -26 125 66 67 123 -28 29
-51 31 -82 10z"/>
<path d="M2656 499 c-26 -21 -37 -55 -13 -46 102 41 101 40 81 54 -24 18 -37
17 -68 -8z"/>
<path d="M3370 415 c-24 -29 0 -51 50 -46 19 3 52 40 44 52 -9 15 -80 10 -94
-6z"/>
</g>
</svg>
