<?xml version="1.0" standalone="no"?>
<!DOCTYPE svg PUBLIC "-//W3C//DTD SVG 20010904//EN"
 "http://www.w3.org/TR/2001/REC-SVG-20010904/DTD/svg10.dtd">
<svg version="1.0" xmlns="http://www.w3.org/2000/svg"
 width="388.000000pt" height="130.000000pt" viewBox="0 0 388.000000 130.000000"
 preserveAspectRatio="xMidYMid meet">

<g transform="translate(0.000000,130.000000) scale(0.100000,-0.100000)"
fill="#000000" stroke="none">
<path d="M149 1271 c-41 -13 -77 -41 -99 -76 -19 -31 -20 -48 -20 -545 0 -499
1 -513 21 -546 11 -18 37 -43 57 -56 l37 -23 975 1 c536 0 1344 1 1796 2 l821
2 34 23 c18 12 44 38 56 56 l23 34 0 507 0 507 -22 33 c-34 49 -71 73 -130 81
-73 10 -3517 10 -3549 0z m911 -400 l0 -188 -37 -7 c-21 -3 -120 -6 -220 -6
l-183 0 0 153 0 153 203 41 c111 22 210 41 220 42 16 1 17 -14 17 -188z m-480
-56 l0 -145 -140 0 -140 0 0 120 c0 116 1 120 23 125 78 19 206 43 230 44 l27
1 0 -145z m708 29 c32 -22 30 -78 -2 -99 -14 -9 -37 -15 -53 -13 -26 3 -28 7
-31 52 -2 27 -1 55 2 62 7 19 56 18 84 -2z m72 6 c0 -5 -7 -10 -15 -10 -8 0
-15 5 -15 10 0 6 7 10 15 10 8 0 15 -4 15 -10z m493 -2 c-4 -7 -8 -35 -8 -62
0 -30 -5 -51 -12 -53 -9 -3 -13 9 -13 42 0 48 13 85 31 85 6 0 7 -6 2 -12z
m247 -37 c0 -28 5 -53 11 -57 7 -4 7 -10 1 -16 -6 -6 -15 -7 -21 -4 -14 9 -15
126 -1 126 6 0 10 -22 10 -49z m-740 -31 c0 -38 -4 -50 -15 -50 -11 0 -15 12
-15 50 0 38 4 50 15 50 11 0 15 -12 15 -50z m91 33 c13 -15 11 -16 -13 -9 -17
4 -28 2 -28 -4 0 -5 6 -10 14 -10 7 0 19 -7 26 -16 11 -12 11 -18 -3 -31 -17
-17 -67 -11 -67 8 0 7 10 9 25 5 14 -4 25 -2 25 3 0 5 -11 12 -25 15 -24 6
-34 34 -18 49 12 13 51 7 64 -10z m95 11 c28 -5 37 -42 18 -72 -11 -17 -22
-23 -40 -19 -18 3 -24 0 -24 -14 0 -11 -4 -19 -10 -19 -6 0 -10 28 -10 64 0
70 2 72 66 60z m130 -19 c15 -23 15 -27 0 -50 -27 -42 -86 -26 -86 23 0 55 56
72 86 27z m114 4 c14 -25 9 -71 -7 -77 -9 -2 -13 9 -13 38 0 34 -3 41 -17 38
-13 -2 -19 -14 -21 -41 -5 -54 -22 -45 -22 11 0 49 0 49 35 50 25 1 38 -4 45
-19z m107 -9 c3 -16 9 -30 13 -30 5 0 11 14 15 30 4 17 13 30 21 30 17 0 13
-23 -13 -72 -19 -39 -31 -35 -53 18 -24 55 -24 54 -5 54 9 0 18 -12 22 -30z
m148 14 c11 -12 14 -25 10 -43 -15 -60 -85 -53 -85 9 0 47 42 66 75 34z m213
-38 c2 -36 0 -47 -10 -44 -7 3 -14 21 -16 42 -4 48 -26 43 -30 -7 -2 -24 -8
-37 -18 -37 -10 0 -14 13 -14 48 l0 49 43 -1 42 -1 3 -49z m106 38 c31 -30 9
-84 -34 -84 -24 0 -50 26 -50 50 0 24 26 50 50 50 10 0 26 -7 34 -16z m-374
-305 c0 -126 -2 -140 -15 -129 -12 10 -19 10 -27 2 -7 -7 -26 -12 -43 -12 -92
0 -110 155 -22 191 22 9 37 10 58 2 l29 -11 0 49 c0 27 5 49 10 49 6 0 10 -54
10 -141z m-735 29 c15 -57 31 -108 34 -115 3 -7 22 40 40 103 19 62 37 114 41
114 4 0 19 -47 35 -105 15 -58 31 -107 35 -110 4 -2 20 44 36 102 16 59 34
108 41 110 6 3 -5 -51 -28 -129 -21 -73 -39 -134 -39 -135 0 -2 -4 -3 -8 -3
-5 0 -21 44 -37 98 -15 53 -31 100 -35 104 -3 5 -20 -39 -38 -97 -18 -58 -36
-105 -40 -105 -8 0 -82 235 -82 259 0 6 4 11 8 11 5 0 21 -46 37 -102z m327
87 c0 -5 -5 -11 -11 -13 -6 -2 -11 4 -11 13 0 9 5 15 11 13 6 -2 11 -8 11 -13z
m-1002 -140 c0 -136 -1 -145 -19 -145 -16 0 -170 29 -238 45 -22 5 -23 9 -23
125 l0 120 140 0 140 0 0 -145z m343 138 l137 -6 0 -190 0 -189 -22 4 c-13 2
-112 22 -220 43 l-198 39 0 153 0 153 83 0 c46 0 145 -3 220 -7z m838 -72 c19
-16 24 -30 27 -91 3 -45 0 -76 -7 -83 -8 -8 -11 7 -11 59 0 77 -17 114 -52
114 -42 0 -58 -28 -58 -101 0 -37 -4 -71 -10 -74 -6 -4 -10 28 -10 89 0 57 4
96 10 96 6 0 10 -5 10 -11 0 -5 10 -3 22 5 30 21 51 20 79 -3z m416 4 c50 -35
50 -135 0 -170 -74 -52 -162 23 -137 115 16 61 88 90 137 55z m417 9 c28 -11
17 -20 -17 -16 -36 4 -61 -15 -52 -40 3 -8 21 -22 40 -31 44 -21 57 -46 42
-78 -13 -25 -43 -35 -83 -25 -41 11 -27 24 19 19 36 -4 45 -2 51 12 7 20 -19
55 -40 55 -20 0 -54 49 -47 68 12 35 49 50 87 36z m-1014 -99 c0 -57 -4 -95
-10 -95 -6 0 -10 38 -10 95 0 57 4 95 10 95 6 0 10 -38 10 -95z m700 18 l23
-78 25 75 c13 41 27 77 29 80 8 8 19 -19 38 -92 l18 -71 23 77 c22 76 30 94
38 85 8 -8 -50 -184 -60 -182 -5 1 -18 31 -28 67 -11 36 -22 66 -26 66 -3 0
-16 -31 -29 -70 -12 -38 -26 -70 -30 -70 -7 0 -61 164 -61 183 0 4 4 7 8 7 5
0 19 -35 32 -77z"/>
<path d="M1230 796 c0 -50 15 -60 44 -30 27 26 18 56 -21 68 -22 7 -23 4 -23
-38z"/>
<path d="M1504 796 c-9 -24 4 -48 23 -44 12 2 18 12 18 28 0 29 -32 41 -41 16z"/>
<path d="M1617 795 c-9 -22 3 -46 22 -43 10 2 16 13 16 28 0 28 -29 40 -38 15z"/>
<path d="M1995 800 c-3 -5 3 -10 14 -10 12 0 21 5 21 10 0 6 -6 10 -14 10 -8
0 -18 -4 -21 -10z"/>
<path d="M1995 760 c3 -5 13 -10 21 -10 8 0 14 5 14 10 0 6 -9 10 -21 10 -11
0 -17 -4 -14 -10z"/>
<path d="M2312 783 c4 -36 33 -39 33 -3 0 16 -6 26 -18 28 -15 3 -18 -2 -15
-25z"/>
<path d="M1867 533 c-25 -29 -30 -67 -13 -107 13 -32 19 -36 50 -36 48 0 66
22 66 79 0 34 -5 53 -18 64 -24 22 -65 22 -85 0z"/>
<path d="M2075 530 c-24 -27 -25 -93 -1 -119 19 -21 70 -28 92 -13 37 24 41
97 7 134 -22 24 -75 23 -98 -2z"/>
</g>
</svg>
